<?xml version="1.0" encoding="UTF-8"?>
<!DOCTYPE svg PUBLIC "-//W3C//DTD SVG 1.1//EN" "http://www.w3.org/Graphics/SVG/1.1/DTD/svg11.dtd">
<svg xmlns="http://www.w3.org/2000/svg" version="1.1" width="1000px" height="1000px" style="shape-rendering:geometricPrecision; text-rendering:geometricPrecision; image-rendering:optimizeQuality; fill-rule:evenodd; clip-rule:evenodd" xmlns:xlink="http://www.w3.org/1999/xlink">
<g><path style="opacity:0.983" fill="#103859" d="M 846.5,376.5 C 836.34,375.997 826.34,375.33 816.5,374.5C 794.973,242.961 718.973,163.461 588.5,136C 515.043,121.991 442.043,123.991 369.5,142C 265.406,173.096 199.573,241.263 172,346.5C 169.587,355.732 167.754,365.065 166.5,374.5C 155.468,374.561 144.801,376.561 134.5,380.5C 162.461,216.706 258.795,123.539 423.5,101C 490.257,92.99 556.257,96.99 621.5,113C 753.4,152.079 828.4,239.912 846.5,376.5 Z"/></g>
<g><path style="opacity:0.997" fill="#50190f" d="M 771.5,384.5 C 778.055,391.557 784.888,398.557 792,405.5C 812.578,432.561 823.245,463.228 824,497.5C 826.108,528.402 819.108,557.068 803,583.5C 802.333,585.5 802.333,587.5 803,589.5C 811.974,605.139 825.474,613.306 843.5,614C 847.867,611.445 850.367,607.612 851,602.5C 853.679,599.165 856.845,598.665 860.5,601C 868.371,609.323 869.537,618.49 864,628.5C 858.427,632.021 852.76,635.355 847,638.5C 848.955,647.516 850.788,656.516 852.5,665.5C 854.63,688.051 851.13,709.718 842,730.5C 821.576,775.258 789.743,809.425 746.5,833C 707.594,854.063 666.26,868.063 622.5,875C 535.269,890.67 447.935,891.004 360.5,876C 303.691,865.919 253.024,842.919 208.5,807C 176.566,779.316 155.733,744.816 146,703.5C 143.767,700.4 140.934,699.734 137.5,701.5C 129.673,700.524 126.839,696.191 129,688.5C 131.717,685.29 134.217,681.956 136.5,678.5C 156.696,717.032 184.696,748.699 220.5,773.5C 220.062,773.435 219.728,773.601 219.5,774C 252.833,804.342 291.5,825.342 335.5,837C 352.324,841.623 369.324,845.456 386.5,848.5C 387.416,848.457 388.083,848.124 388.5,847.5C 395.65,851.331 403.316,852.997 411.5,852.5C 434.887,856.885 458.554,860.385 482.5,863C 494.167,863.667 505.833,863.667 517.5,863C 558.456,855.953 599.122,847.619 639.5,838C 658.401,834.089 676.401,827.923 693.5,819.5C 743.749,803.401 782.249,772.735 809,727.5C 822.974,700.764 822.974,674.098 809,647.5C 807.334,645.004 805.5,642.671 803.5,640.5C 797.206,629.872 788.872,621.206 778.5,614.5C 773.098,617.726 768.098,621.559 763.5,626C 728.304,651.8 688.971,661.966 645.5,656.5C 582.714,646.878 541.548,611.878 522,551.5C 519.121,540.275 516.955,528.942 515.5,517.5C 515.456,504.469 515.623,491.469 516,478.5C 515.097,477.299 513.931,476.465 512.5,476C 503.5,475.333 494.5,475.333 485.5,476C 484.667,476.833 483.833,477.667 483,478.5C 483.318,487.146 483.818,495.813 484.5,504.5C 483.038,566.483 455.371,612.15 401.5,641.5C 348.566,667.475 296.899,665.308 246.5,635C 238.805,629.817 231.472,624.151 224.5,618C 222.635,616.699 220.635,616.365 218.5,617C 203.602,627.644 192.102,641.144 184,657.5C 177.349,673.358 175.849,689.691 179.5,706.5C 164.111,687.237 152.445,665.737 144.5,642C 159.933,636.236 172.1,626.402 181,612.5C 186.698,606.468 192.698,600.801 199,595.5C 199.638,594.391 200.138,593.225 200.5,592C 187.254,570.267 178.754,546.767 175,521.5C 170.296,469.095 186.796,424.762 224.5,388.5C 231.625,382.766 238.958,377.266 246.5,372C 254.578,367.879 262.411,363.379 270,358.5C 270.5,357 271,355.5 271.5,354C 266.05,315.709 269.55,278.209 282,241.5C 287.274,226.945 294.607,213.612 304,201.5C 324.704,178.53 349.204,173.03 377.5,185C 392.937,197.032 401.771,212.865 404,232.5C 404.176,245.742 404.676,258.908 405.5,272C 410.236,272.217 414.069,270.383 417,266.5C 422,255.5 427,244.5 432,233.5C 444.875,215.541 462.042,209.707 483.5,216C 499.194,224.169 509.028,237.003 513,254.5C 514.167,255.667 515.333,256.833 516.5,258C 529.148,256.727 540.814,259.394 551.5,266C 557.078,272.083 563.078,277.583 569.5,282.5C 576.14,281.023 581.64,277.69 586,272.5C 586.935,270.091 587.435,267.591 587.5,265C 582.955,238.705 588.455,214.872 604,193.5C 619.969,177.963 638.469,174.13 659.5,182C 675.509,189.675 688.009,201.175 697,216.5C 707.873,235.452 714.54,255.786 717,277.5C 718.465,303.905 720.132,330.238 722,356.5C 739.631,363.995 756.131,373.328 771.5,384.5 Z"/></g>
<g><path style="opacity:1" fill="#eb6821" d="M 676.5,341.5 C 634.292,340.803 594.625,350.303 557.5,370C 535.333,382.833 517.833,400.333 505,422.5C 501.831,429.858 498.664,437.191 495.5,444.5C 491.019,445.229 486.519,445.896 482,446.5C 476.432,446.277 472.432,443.611 470,438.5C 441.162,382.87 395.329,353.203 332.5,349.5C 332.256,344.933 331.09,340.599 329,336.5C 329.06,329.503 329.06,322.503 329,315.5C 327.542,313.04 325.709,310.873 323.5,309C 314.624,305.967 310.291,299.8 310.5,290.5C 311.567,260.199 323.9,235.699 347.5,217C 351.167,215 354.833,215 358.5,217C 366.354,228.223 370.854,240.723 372,254.5C 372.667,263.833 372.667,273.167 372,282.5C 370.034,296.783 369.034,311.117 369,325.5C 371.817,331.661 376.65,334.328 383.5,333.5C 386.807,334.602 389.807,336.435 392.5,339C 409.715,340.493 424.548,335.326 437,323.5C 452.094,305.313 462.427,284.646 468,261.5C 468.799,255.515 469.465,249.515 470,243.5C 471.11,241.963 472.61,241.297 474.5,241.5C 478.282,242.788 480.449,245.455 481,249.5C 482.301,266.149 483.301,282.815 484,299.5C 485.824,308.335 490.99,311.169 499.5,308C 504.122,301.922 508.622,295.755 513,289.5C 524.288,277.363 532.622,279.03 538,294.5C 538.632,300.214 538.299,305.881 537,311.5C 534.595,319.547 532.095,327.547 529.5,335.5C 532.776,347.632 540.109,350.799 551.5,345C 560.018,336.132 565.518,325.632 568,313.5C 569.214,311.951 570.714,310.785 572.5,310C 579.904,309.439 587.238,308.772 594.5,308C 595.126,308.75 595.626,309.584 596,310.5C 596.333,314.833 596.667,319.167 597,323.5C 599.995,331.818 605.828,334.985 614.5,333C 616.346,331.97 618.013,330.804 619.5,329.5C 623.025,329.654 625.859,328.321 628,325.5C 631.127,317.992 633.793,310.326 636,302.5C 638.095,281.191 639.929,259.857 641.5,238.5C 641.409,230.774 640.742,223.107 639.5,215.5C 642.772,214.149 646.106,214.316 649.5,216C 666.3,231.098 676.134,249.931 679,272.5C 681.525,295.648 680.691,318.648 676.5,341.5 Z"/></g>
<g><path style="opacity:1" fill="#c85925" d="M 639.5,215.5 C 640.742,223.107 641.409,230.774 641.5,238.5C 639.929,259.857 638.095,281.191 636,302.5C 633.793,310.326 631.127,317.992 628,325.5C 625.859,328.321 623.025,329.654 619.5,329.5C 620.939,324.63 621.606,319.63 621.5,314.5C 620.226,297.819 618.892,281.152 617.5,264.5C 617.274,253.585 618.774,242.918 622,232.5C 624.016,226.499 627.516,221.666 632.5,218C 634.65,216.589 636.984,215.755 639.5,215.5 Z"/></g>
<g><path style="opacity:1" fill="#c85925" d="M 474.5,241.5 C 472.61,241.297 471.11,241.963 470,243.5C 469.465,249.515 468.799,255.515 468,261.5C 462.427,284.646 452.094,305.313 437,323.5C 424.548,335.326 409.715,340.493 392.5,339C 389.807,336.435 386.807,334.602 383.5,333.5C 388.421,333.957 391.921,331.957 394,327.5C 394.956,320.804 395.956,314.138 397,307.5C 398.214,305.951 399.714,304.785 401.5,304C 423.269,301.86 439.436,291.36 450,272.5C 453.471,263.088 457.137,253.754 461,244.5C 464.648,239.146 469.148,238.146 474.5,241.5 Z"/></g>
<g><path style="opacity:1" fill="#c85925" d="M 310.5,290.5 C 310.291,299.8 314.624,305.967 323.5,309C 325.709,310.873 327.542,313.04 329,315.5C 329.06,322.503 329.06,329.503 329,336.5C 331.09,340.599 332.256,344.933 332.5,349.5C 327.156,349.666 321.823,349.499 316.5,349C 315.299,348.097 314.465,346.931 314,345.5C 310.428,329.354 308.761,313.021 309,296.5C 309.191,294.292 309.691,292.292 310.5,290.5 Z"/></g>
<g><path style="opacity:1" fill="#c95925" d="M 676.5,341.5 C 677.039,344.695 676.039,347.195 673.5,349C 626.035,346.253 586.535,362.42 555,397.5C 544.298,411.732 534.464,426.566 525.5,442C 515.527,443.139 505.527,443.972 495.5,444.5C 498.664,437.191 501.831,429.858 505,422.5C 517.833,400.333 535.333,382.833 557.5,370C 594.625,350.303 634.292,340.803 676.5,341.5 Z"/></g>
<g><path style="opacity:0.998" fill="#3865ae" d="M 166.5,374.5 C 173.547,374.337 180.547,374.837 187.5,376C 200.031,379.677 212.365,383.844 224.5,388.5C 186.796,424.762 170.296,469.095 175,521.5C 178.754,546.767 187.254,570.267 200.5,592C 200.138,593.225 199.638,594.391 199,595.5C 192.698,600.801 186.698,606.468 181,612.5C 172.1,626.402 159.933,636.236 144.5,642C 152.445,665.737 164.111,687.237 179.5,706.5C 206.263,741.409 240.263,766.909 281.5,783C 294.177,788.009 307.177,791.843 320.5,794.5C 335.721,799.096 351.388,802.096 367.5,803.5C 369.167,803.167 370.833,802.833 372.5,802.5C 376.855,793.478 383.522,786.812 392.5,782.5C 414.99,775.832 431.157,783.165 441,804.5C 443.752,814.992 442.585,824.992 437.5,834.5C 431.267,844.074 422.6,850.074 411.5,852.5C 403.316,852.997 395.65,851.331 388.5,847.5C 379.304,842.135 373.304,834.301 370.5,824C 316.079,819.805 266.079,802.971 220.5,773.5C 184.696,748.699 156.696,717.032 136.5,678.5C 134.974,674.615 133.308,670.781 131.5,667C 113.11,662.561 97.6102,653.395 85,639.5C 84.1502,637.99 83.3169,636.49 82.5,635C 82.6448,634.228 82.9781,633.561 83.5,633C 79.3864,625.372 77.7197,617.206 78.5,608.5C 78.5,550.833 78.5,493.167 78.5,435.5C 78.0262,422.414 82.3595,411.248 91.5,402C 103.914,391.126 118.247,383.96 134.5,380.5C 144.801,376.561 155.468,374.561 166.5,374.5 Z"/></g>
<g><path style="opacity:0.998" fill="#3865ae" d="M 816.5,374.5 C 826.34,375.33 836.34,375.997 846.5,376.5C 872.085,377.376 892.919,387.71 909,407.5C 910.317,412.813 911.651,418.146 913,423.5C 913.499,427.152 913.665,430.818 913.5,434.5C 913.5,492.167 913.5,549.833 913.5,607.5C 913.485,627.36 904.818,642.194 887.5,652C 876.449,658.182 864.782,662.682 852.5,665.5C 850.788,656.516 848.955,647.516 847,638.5C 852.76,635.355 858.427,632.021 864,628.5C 869.537,618.49 868.371,609.323 860.5,601C 856.845,598.665 853.679,599.165 851,602.5C 850.367,607.612 847.867,611.445 843.5,614C 825.474,613.306 811.974,605.139 803,589.5C 802.333,587.5 802.333,585.5 803,583.5C 819.108,557.068 826.108,528.402 824,497.5C 823.245,463.228 812.578,432.561 792,405.5C 784.888,398.557 778.055,391.557 771.5,384.5C 785.972,378.872 800.972,375.539 816.5,374.5 Z"/></g>
<g><path style="opacity:1" fill="#fefefe" d="M 317.5,383.5 C 376.869,381.081 418.702,406.747 443,460.5C 452.51,487.748 452.844,515.081 444,542.5C 442.607,546.286 440.941,549.952 439,553.5C 438.606,545.284 436.772,537.451 433.5,530C 429.765,532.981 425.432,535.314 420.5,537C 410.542,538.104 403.042,534.271 398,525.5C 395.627,519.482 396.294,513.815 400,508.5C 402.5,506 405,503.5 407.5,501C 390.64,495.997 377.14,500.83 367,515.5C 356.586,532.028 352.919,550.028 356,569.5C 358.64,587.631 367.474,601.798 382.5,612C 371.621,619.294 359.621,623.628 346.5,625C 295.958,628.957 256.125,610.457 227,569.5C 206.435,534.078 203.102,497.078 217,458.5C 236.929,415.137 270.429,390.137 317.5,383.5 Z"/></g>
<g><path style="opacity:1" fill="#fefefe" d="M 656.5,382.5 C 715.914,380.273 758.081,405.94 783,459.5C 800.528,512.214 789.361,557.714 749.5,596C 714.742,624.075 675.742,632.075 632.5,620C 626.542,617.905 620.876,615.239 615.5,612C 636.779,594.515 645.279,572.015 641,544.5C 640.441,540.814 639.774,537.147 639,533.5C 638.804,531.714 637.971,530.381 636.5,529.5C 629.709,536.015 621.709,538.181 612.5,536C 602.945,531.44 599.112,523.94 601,513.5C 603.56,508.884 606.727,504.718 610.5,501C 610.167,500.667 609.833,500.333 609.5,500C 598.997,496.833 589.33,498.5 580.5,505C 567.834,516.831 560.334,531.331 558,548.5C 538.617,495.201 549.783,449.367 591.5,411C 610.57,395.462 632.237,385.962 656.5,382.5 Z"/></g>
<g><path style="opacity:0.984" fill="#103858" d="M 913.5,434.5 C 936.44,435.601 950.94,447.268 957,469.5C 957.667,503.833 957.667,538.167 957,572.5C 950.346,593.994 935.846,605.66 913.5,607.5C 913.5,549.833 913.5,492.167 913.5,434.5 Z"/></g>
<g><path style="opacity:0.985" fill="#103858" d="M 78.5,435.5 C 78.5,493.167 78.5,550.833 78.5,608.5C 54.4922,607.977 38.9922,596.311 32,573.5C 31.3333,538.833 31.3333,504.167 32,469.5C 39.3817,447.06 54.8817,435.726 78.5,435.5 Z"/></g>
<g><path style="opacity:1" fill="#d75925" d="M 515.5,517.5 C 514.594,513.322 513.76,508.988 513,504.5C 512.727,502.671 511.893,501.171 510.5,500C 501.781,501.184 493.114,502.684 484.5,504.5C 483.818,495.813 483.318,487.146 483,478.5C 483.833,477.667 484.667,476.833 485.5,476C 494.5,475.333 503.5,475.333 512.5,476C 513.931,476.465 515.097,477.299 516,478.5C 515.623,491.469 515.456,504.469 515.5,517.5 Z"/></g>
<g><path style="opacity:1" fill="#eb6822" d="M 515.5,517.5 C 516.955,528.942 519.121,540.275 522,551.5C 541.548,611.878 582.714,646.878 645.5,656.5C 651.917,664.384 660.25,669.217 670.5,671C 713.929,675.514 755.262,668.181 794.5,649C 798.027,646.638 801.027,643.804 803.5,640.5C 805.5,642.671 807.334,645.004 809,647.5C 822.974,674.098 822.974,700.764 809,727.5C 782.249,772.735 743.749,803.401 693.5,819.5C 659.179,823.029 624.846,826.529 590.5,830C 583.842,830.5 577.175,830.666 570.5,830.5C 575.464,825.035 580.63,819.702 586,814.5C 598.012,797.793 603.845,779.127 603.5,758.5C 605.88,755.119 608.88,752.453 612.5,750.5C 621.7,750.311 628.2,745.977 632,737.5C 637.232,727.681 640.065,717.348 640.5,706.5C 649.776,699.899 650.943,691.899 644,682.5C 632.577,671.079 618.743,666.079 602.5,667.5C 597.887,658.044 591.221,650.21 582.5,644C 531.094,603.65 477.76,600.983 422.5,636C 404.608,648.972 391.941,665.806 384.5,686.5C 373.821,686.554 364.988,690.554 358,698.5C 351.683,711.695 355.85,719.529 370.5,722C 371.333,722.833 372.167,723.667 373,724.5C 374.371,729.58 376.037,734.58 378,739.5C 382.42,746.404 386.587,753.404 390.5,760.5C 390.152,767.952 390.818,775.286 392.5,782.5C 383.522,786.812 376.855,793.478 372.5,802.5C 370.833,802.833 369.167,803.167 367.5,803.5C 351.388,802.096 335.721,799.096 320.5,794.5C 299.206,784.522 279.539,772.022 261.5,757C 234.264,732.873 222.098,702.706 225,666.5C 225.804,665.196 226.971,664.529 228.5,664.5C 274.947,685.781 321.947,686.948 369.5,668C 382.739,662.26 393.405,653.427 401.5,641.5C 455.371,612.15 483.038,566.483 484.5,504.5C 493.114,502.684 501.781,501.184 510.5,500C 511.893,501.171 512.727,502.671 513,504.5C 513.76,508.988 514.594,513.322 515.5,517.5 Z"/></g>
<g><path style="opacity:1" fill="#f6f4f2" d="M 373.5,543.5 C 377.007,542.994 380.174,543.66 383,545.5C 384,549.167 385,552.833 386,556.5C 388,559.167 390,561.833 392,564.5C 392.543,574.013 388.043,577.513 378.5,575C 374.942,573.108 372.442,570.275 371,566.5C 368.371,558.345 369.205,550.678 373.5,543.5 Z"/></g>
<g><path style="opacity:1" fill="#f7f6f5" d="M 577.5,543.5 C 585.308,542.805 589.142,546.472 589,554.5C 591.084,558.336 593.417,562.003 596,565.5C 596.806,570.06 594.973,573.226 590.5,575C 582.842,576.754 577.676,573.921 575,566.5C 573.483,560.92 573.149,555.253 574,549.5C 574.564,547.113 575.73,545.113 577.5,543.5 Z"/></g>
<g><path style="opacity:1" fill="#fcf5f2" d="M 602.5,667.5 C 593.672,671.488 587.172,677.821 583,686.5C 582.069,691.969 584.236,695.636 589.5,697.5C 595.594,698.972 597.094,702.639 594,708.5C 590.381,715.451 584.881,720.284 577.5,723C 573.317,724.796 568.984,726.129 564.5,727C 553.461,727.819 542.461,727.486 531.5,726C 522.504,724.69 520.337,720.19 525,712.5C 531.801,706.228 535.968,698.562 537.5,689.5C 541.539,681.418 545.039,673.085 548,664.5C 551.641,655.437 549.475,648.27 541.5,643C 523.959,633.742 505.292,630.076 485.5,632C 474.635,632.973 463.969,634.973 453.5,638C 440.696,644.109 435.696,654.276 438.5,668.5C 435.123,672.332 434.623,676.665 437,681.5C 438.471,685.581 440.138,689.581 442,693.5C 446.721,699.221 451.054,705.221 455,711.5C 458.789,723.408 454.289,729.575 441.5,730C 429.301,732.82 419.135,729.653 411,720.5C 409.266,716.543 409.099,712.543 410.5,708.5C 412.646,702.89 411.646,698.056 407.5,694C 400.229,690.187 392.562,687.687 384.5,686.5C 391.941,665.806 404.608,648.972 422.5,636C 477.76,600.983 531.094,603.65 582.5,644C 591.221,650.21 597.887,658.044 602.5,667.5 Z"/></g>
<g><path style="opacity:1" fill="#c85925" d="M 803.5,640.5 C 801.027,643.804 798.027,646.638 794.5,649C 755.262,668.181 713.929,675.514 670.5,671C 660.25,669.217 651.917,664.384 645.5,656.5C 688.971,661.966 728.304,651.8 763.5,626C 768.098,621.559 773.098,617.726 778.5,614.5C 788.872,621.206 797.206,629.872 803.5,640.5 Z"/></g>
<g><path style="opacity:1" fill="#c95926" d="M 401.5,641.5 C 393.405,653.427 382.739,662.26 369.5,668C 321.947,686.948 274.947,685.781 228.5,664.5C 226.971,664.529 225.804,665.196 225,666.5C 222.098,702.706 234.264,732.873 261.5,757C 279.539,772.022 299.206,784.522 320.5,794.5C 307.177,791.843 294.177,788.009 281.5,783C 240.263,766.909 206.263,741.409 179.5,706.5C 175.849,689.691 177.349,673.358 184,657.5C 192.102,641.144 203.602,627.644 218.5,617C 220.635,616.365 222.635,616.699 224.5,618C 231.472,624.151 238.805,629.817 246.5,635C 296.899,665.308 348.566,667.475 401.5,641.5 Z"/></g>
<g><path style="opacity:1" fill="#511a10" d="M 537.5,689.5 C 530.233,698.601 522.067,706.935 513,714.5C 510.896,717.758 511.23,720.758 514,723.5C 534.508,745.997 558.674,750.831 586.5,738C 600.884,728.391 607.051,714.891 605,697.5C 604.653,695.82 603.653,694.82 602,694.5C 598.181,696.927 594.014,697.927 589.5,697.5C 584.236,695.636 582.069,691.969 583,686.5C 587.172,677.821 593.672,671.488 602.5,667.5C 618.743,666.079 632.577,671.079 644,682.5C 650.943,691.899 649.776,699.899 640.5,706.5C 637.538,705.939 634.705,704.939 632,703.5C 630.739,703.759 629.739,704.426 629,705.5C 628.325,722.367 622.825,737.367 612.5,750.5C 608.88,752.453 605.88,755.119 603.5,758.5C 587.612,766.979 570.612,770.813 552.5,770C 550.843,777.597 548.677,785.097 546,792.5C 541.463,798.69 535.297,802.19 527.5,803C 504.136,804.857 480.803,804.857 457.5,803C 454.898,802.117 452.731,800.617 451,798.5C 448.567,793.102 447.234,787.435 447,781.5C 446.535,780.069 445.701,778.903 444.5,778C 424.184,778.929 406.184,773.095 390.5,760.5C 386.587,753.404 382.42,746.404 378,739.5C 376.037,734.58 374.371,729.58 373,724.5C 372.167,723.667 371.333,722.833 370.5,722C 355.85,719.529 351.683,711.695 358,698.5C 364.988,690.554 373.821,686.554 384.5,686.5C 392.562,687.687 400.229,690.187 407.5,694C 411.646,698.056 412.646,702.89 410.5,708.5C 406.049,709.043 401.882,710.376 398,712.5C 398.925,737.258 411.758,750.258 436.5,751.5C 457.579,752.553 472.412,743.553 481,724.5C 481.667,721.833 481.667,719.167 481,716.5C 462.654,704 448.487,688 438.5,668.5C 435.696,654.276 440.696,644.109 453.5,638C 463.969,634.973 474.635,632.973 485.5,632C 505.292,630.076 523.959,633.742 541.5,643C 549.475,648.27 551.641,655.437 548,664.5C 545.039,673.085 541.539,681.418 537.5,689.5 Z"/></g>
<g><path style="opacity:1" fill="#d7d7d6" d="M 438.5,668.5 C 448.487,688 462.654,704 481,716.5C 481.667,719.167 481.667,721.833 481,724.5C 472.412,743.553 457.579,752.553 436.5,751.5C 411.758,750.258 398.925,737.258 398,712.5C 401.882,710.376 406.049,709.043 410.5,708.5C 409.099,712.543 409.266,716.543 411,720.5C 419.135,729.653 429.301,732.82 441.5,730C 454.289,729.575 458.789,723.408 455,711.5C 451.054,705.221 446.721,699.221 442,693.5C 440.138,689.581 438.471,685.581 437,681.5C 434.623,676.665 435.123,672.332 438.5,668.5 Z"/></g>
<g><path style="opacity:1" fill="#d7d6d5" d="M 537.5,689.5 C 535.968,698.562 531.801,706.228 525,712.5C 520.337,720.19 522.504,724.69 531.5,726C 542.461,727.486 553.461,727.819 564.5,727C 568.984,726.129 573.317,724.796 577.5,723C 584.881,720.284 590.381,715.451 594,708.5C 597.094,702.639 595.594,698.972 589.5,697.5C 594.014,697.927 598.181,696.927 602,694.5C 603.653,694.82 604.653,695.82 605,697.5C 607.051,714.891 600.884,728.391 586.5,738C 558.674,750.831 534.508,745.997 514,723.5C 511.23,720.758 510.896,717.758 513,714.5C 522.067,706.935 530.233,698.601 537.5,689.5 Z"/></g>
<g><path style="opacity:1" fill="#d85925" d="M 640.5,706.5 C 640.065,717.348 637.232,727.681 632,737.5C 628.2,745.977 621.7,750.311 612.5,750.5C 622.825,737.367 628.325,722.367 629,705.5C 629.739,704.426 630.739,703.759 632,703.5C 634.705,704.939 637.538,705.939 640.5,706.5 Z"/></g>
<g><path style="opacity:1" fill="#f0ecea" d="M 497.5,747.5 C 499.199,747.34 500.866,747.506 502.5,748C 506.967,752.4 511.967,756.066 517.5,759C 524.139,761.985 530.639,765.151 537,768.5C 538.466,786.703 530.299,793.869 512.5,790C 511.667,789.167 510.833,788.333 510,787.5C 509.667,781.167 509.333,774.833 509,768.5C 504.667,761.833 500.333,761.833 496,768.5C 495.667,774.167 495.333,779.833 495,785.5C 494.727,787.329 493.893,788.829 492.5,790C 487.944,791.109 483.278,791.609 478.5,791.5C 464.846,794.306 458.679,788.973 460,775.5C 467.419,771.207 474.919,767.04 482.5,763C 488.375,758.626 493.375,753.459 497.5,747.5 Z"/></g>
<g><path style="opacity:1" fill="#fcf5f2" d="M 603.5,758.5 C 603.845,779.127 598.012,797.793 586,814.5C 580.63,819.702 575.464,825.035 570.5,830.5C 531.411,849.281 491.078,852.447 449.5,840C 445.324,838.41 441.324,836.576 437.5,834.5C 442.585,824.992 443.752,814.992 441,804.5C 431.157,783.165 414.99,775.832 392.5,782.5C 390.818,775.286 390.152,767.952 390.5,760.5C 406.184,773.095 424.184,778.929 444.5,778C 445.701,778.903 446.535,780.069 447,781.5C 447.234,787.435 448.567,793.102 451,798.5C 452.731,800.617 454.898,802.117 457.5,803C 480.803,804.857 504.136,804.857 527.5,803C 535.297,802.19 541.463,798.69 546,792.5C 548.677,785.097 550.843,777.597 552.5,770C 570.612,770.813 587.612,766.979 603.5,758.5 Z"/></g>
<g><path style="opacity:1" fill="#c75926" d="M 220.5,773.5 C 266.079,802.971 316.079,819.805 370.5,824C 373.304,834.301 379.304,842.135 388.5,847.5C 388.083,848.124 387.416,848.457 386.5,848.5C 369.324,845.456 352.324,841.623 335.5,837C 291.5,825.342 252.833,804.342 219.5,774C 219.728,773.601 220.062,773.435 220.5,773.5 Z"/></g>
<g><path style="opacity:1" fill="#c95a26" d="M 693.5,819.5 C 676.401,827.923 658.401,834.089 639.5,838C 599.122,847.619 558.456,855.953 517.5,863C 505.833,863.667 494.167,863.667 482.5,863C 458.554,860.385 434.887,856.885 411.5,852.5C 422.6,850.074 431.267,844.074 437.5,834.5C 441.324,836.576 445.324,838.41 449.5,840C 491.078,852.447 531.411,849.281 570.5,830.5C 577.175,830.666 583.842,830.5 590.5,830C 624.846,826.529 659.179,823.029 693.5,819.5 Z"/></g>
</svg>
